#!OML:ASF F:\VICON\USERDATA\INSTALL\rory3\rory3.ASF
:FULLY-SPECIFIED
:DEGREES
1536
root 0.211278 16.9123 -0.241284 0.635716 7.16788 -2.73221
lowerback -1.51209 1.73805 -2.48545
upperback -6.31135 2.37851 1.76293
thorax -5.88159 1.3748 3.1361
lowerneck -7.39475 -8.21345 -16.1152
upperneck 24.4994 -13.365 17.0754
head 11.4428 -6.00493 7.34113
rclavicle 6.21202e-017 1.98785e-015
rhumerus -1.02916 14.5073 -88.8896
rradius 130.798
rwrist 32.5291
rhand 44.6302 7.95553
rfingers 7.12502
rthumb 66.1038 2.73048
lclavicle 6.21202e-017 1.98785e-015
lhumerus 10.5799 -12.2375 85.6637
lradius 138.756
lwrist -8.47508
lhand 30.705 43.8107
lfingers 7.12502
lthumb 54.3397 62.4165
rfemur -9.00181 -4.12153 21.2712
rtibia 30.7941
rfoot -21.9917 -8.51008
rtoes -16.8585
lfemur -14.5376 -12.825 -15.3446
ltibia 36.4412
lfoot -21.5828 1.61102
ltoes -17.0444
1537
root 0.208494 16.9526 -0.228302 0.905841 7.88169 -2.64136
lowerback -1.72905 1.93562 -2.49712
upperback -6.38523 2.64157 1.60824
thorax -5.84869 1.5031 2.97631
lowerneck -7.5723 -8.27604 -15.8323
upperneck 24.6703 -13.4229 16.812
head 11.512 -6.01378 7.17821
rclavicle 2.34566e-014 1.51076e-014
rhumerus 0.233463 14.4433 -88.4554
rradius 130.869
rwrist 32.4231
rhand 44.2625 7.60679
rfingers 7.12502
rthumb 65.82 1.85714
lclavicle 2.34566e-014 1.51076e-014
lhumerus 11.8529 -11.3948 84.9961
lradius 138.466
lwrist -8.54914
lhand 30.3572 43.6715
lfingers 7.12502
lthumb 54.0278 62.4906
rfemur -8.60413 -4.5637 21.1963
rtibia 29.7091
rfoot -21.5422 -8.559
rtoes -16.689
lfemur -14.4592 -13.4216 -15.3547
ltibia 35.5441
lfoot -21.0814 1.58296
ltoes -17.3726
1538
root 0.20685 16.9873 -0.213616 1.17383 8.53881 -2.51889
lowerback -1.61582 2.21928 -2.39619
upperback -6.65639 3.00954 1.29408
thorax -6.20523 1.67955 2.56691
lowerneck -7.63916 -8.37302 -15.3934
upperneck 24.8853 -13.6118 16.647
head 11.5978 -6.06322 7.01248
rclavicle -1.85864e-014 -3.18055e-015
rhumerus 1.21635 14.2039 -88.2279
rradius 130.873
rwrist 32.2294
rhand 43.667 7.38683
rfingers 7.12502
rthumb 65.3562 0.814324
lclavicle -1.85864e-014 -3.18055e-015
lhumerus 12.7397 -10.8155 84.2611
lradius 138.166
lwrist -8.55568
lhand 29.8543 43.3031
lfingers 7.12502
lthumb 53.5759 62.4239
rfemur -8.22221 -4.84612 21.0934
rtibia 28.6718
rfoot -21.0688 -8.77455
rtoes -16.872
lfemur -14.3674 -13.8832 -15.3978
ltibia 34.6727
lfoot -20.5884 1.48119
ltoes -17.6912
1539
root 0.204523 17.0204 -0.2021 1.45217 9.25427 -2.35617
lowerback -0.937321 2.42908 -2.27089
upperback -7.33392 3.2726 1.00112
thorax -7.31602 1.81315 2.1319
lowerneck -7.40205 -8.34581 -15.1844
upperneck 25.4413 -13.6642 16.4701
head 11.7421 -6.08492 6.93357
rclavicle 7.70788e-014 7.35503e-015
rhumerus 1.4953 14.3372 -88.2623
rradius 130.896
rwrist 32.2146
rhand 43.3732 7.20971
rfingers 7.12502
rthumb 65.1254 0.243025
lclavicle 7.70788e-014 7.35503e-015
lhumerus 12.5628 -10.2408 83.8823
lradius 138.037
lwrist -8.57467
lhand 29.6022 43.0463
lfingers 7.12502
lthumb 53.349 62.3152
rfemur -7.87311 -5.042 20.9746
rtibia 27.6949
rfoot -20.645 -9.14145
rtoes -16.6872
lfemur -14.3581 -14.4088 -15.4643
ltibia 33.8751
lfoot -20.0672 1.13127
ltoes -16.3707
1540
root 0.200968 17.0533 -0.197746 1.76841 10.0106 -2.24932
lowerback -0.925472 2.48117 -2.37576
upperback -7.61295 3.35271 1.14353
thorax -7.6481 1.87364 2.32683
lowerneck -7.41633 -8.27483 -15.5201
upperneck 25.8245 -13.4605 16.1898
head 11.8573 -6.04326 6.93248
rclavicle -7.20097e-014 -2.62396e-014
rhumerus 2.4146 15.1237 -87.8042
rradius 130.719
rwrist 32.2209
rhand 43.0111 7.024
rfingers 7.12502
rthumb 64.8393 -0.418191
lclavicle -7.20097e-014 -2.62396e-014
lhumerus 12.4885 -9.09452 83.9033
lradius 137.863
lwrist -8.63559
lhand 29.8656 43.1927
lfingers 7.12502
lthumb 53.586 62.3068
rfemur -7.65255 -5.11187 20.95
rtibia 26.8301
rfoot -20.2767 -9.59363
rtoes -16.1715
lfemur -14.4744 -14.9525 -15.4364
ltibia 33.1326
lfoot -19.5203 0.885382
ltoes -15.629
1541
root 0.194541 17.0818 -0.198986 2.04287 10.7856 -2.29851
lowerback -1.24676 2.51112 -2.29438
upperback -7.62494 3.41802 1.37186
thorax -7.48946 1.9104 2.53139
lowerneck -7.61949 -8.25001 -15.9164
upperneck 26.0395 -13.2615 15.9133
head 11.9534 -6.00322 6.92707
rclavicle 6.33626e-014 2.22639e-014
rhumerus 3.83553 15.898 -87.185
rradius 130.332
rwrist 31.9109
rhand 42.4095 6.92626
rfingers 7.12502
rthumb 64.3599 -1.28152
lclavicle 6.33626e-014 2.22639e-014
lhumerus 12.4669 -7.9757 83.7218
lradius 137.426
lwrist -8.49292
lhand 29.4751 43.1005
lfingers 7.12502
lthumb 53.2345 62.4432
rfemur -7.48974 -5.03887 21.1193
rtibia 26.0595
rfoot -19.9518 -10.0986
rtoes -15.8145
lfemur -14.6589 -15.3927 -15.2014
ltibia 32.4541
lfoot -18.9617 0.519905
ltoes -15.0247
1542
root 0.191575 17.1052 -0.199626 2.29085 11.6546 -1.97418
lowerback -0.749473 2.67133 -2.34651
upperback -8.04714 3.6203 1.19886
thorax -8.24563 2.02074 2.33057
lowerneck -7.58148 -8.31915 -15.805
upperneck 26.5069 -13.3307 15.5247
head 12.1034 -6.05459 6.76287
rclavicle -3.64521e-014 -7.55382e-015
rhumerus 4.47272 16.2108 -87.1001
rradius 130.114
rwrist 31.1415
rhand 42.6728 6.42149
rfingers 7.12502
rthumb 64.5703 -1.45489
lclavicle -3.64521e-014 -7.55382e-015
lhumerus 11.7005 -7.59891 83.336
lradius 136.815
lwrist -8.46847
lhand 28.6526 42.3956
lfingers 7.12502
lthumb 52.4915 62.2047
rfemur -7.241 -5.15394 20.8522
rtibia 25.3825
rfoot -19.6534 -10.5945
rtoes -16.2211
lfemur -14.7767 -15.9042 -15.4156
ltibia 31.8398
lfoot -18.4343 0.206893
ltoes -14.9783
1543
root 0.194996 17.1257 -0.195168 2.46198 12.538 -1.63808
lowerback -1.00848 2.85868 -2.45531
upperback -7.96028 3.868 1.09729
thorax -8.01605 2.14466 2.2826
lowerneck -7.69262 -8.44648 -15.5341
upperneck 26.4901 -13.4186 15.1196
head 12.081 -6.09579 6.53033
rclavicle -5.40943e-014 -4.96962e-015
rhumerus 5.62385 16.6111 -86.7845
rradius 129.812
rwrist 30.5243
rhand 43.0977 5.88057
rfingers 7.12502
rthumb 64.9079 -1.44893
lclavicle -5.40943e-014 -4.96962e-015
lhumerus 11.5218 -7.33618 83.1071
lradius 136.174
lwrist -8.53369
lhand 28.276 42.0948
lfingers 7.12502
lthumb 52.1505 62.1106
rfemur -6.92093 -5.362 20.5387
rtibia 24.8229
rfoot -19.4304 -11.2002
rtoes -16.6439
lfemur -14.7822 -16.4929 -15.7011
ltibia 31.2976
lfoot -18.0553 0.0558221
ltoes -15.728
1544
root 0.201126 17.1423 -0.189806 2.50485 13.4356 -1.47124
lowerback -0.507961 2.98276 -2.14491
upperback -8.30658 4.03425 0.937034
thorax -8.66268 2.2076 1.89139
lowerneck -7.5964 -8.45217 -15.3088
upperneck 26.8709 -13.4099 14.7406
head 12.16 -6.10321 6.36093
rclavicle 1.52816e-014 -4.27387e-015
rhumerus 5.73034 17.0654 -86.9391
rradius 129.261
rwrist 30.6804
rhand 42.6452 6.43143
rfingers 7.12502
rthumb 64.5483 -1.47989
lclavicle 1.52816e-014 -4.27387e-015
lhumerus 10.2188 -7.3246 82.6602
lradius 135.488
lwrist -8.53824
lhand 27.8941 41.9549
lfingers 7.12502
lthumb 51.8041 62.1762
rfemur -6.54956 -5.60683 20.4017
rtibia 24.3976
rfoot -19.2963 -11.7987
rtoes -16.9313
lfemur -14.7174 -17.0045 -15.8245
ltibia 30.8267
lfoot -17.622 -0.434501
ltoes -14.6326
1545
root 0.208273 17.1548 -0.184184 2.56779 14.3866 -1.16013
lowerback -0.536911 3.06342 -2.05778
upperback -8.35572 4.14798 0.900777
thorax -8.69631 2.25777 1.79603
lowerneck -7.57036 -8.49135 -15.3961
upperneck 27.013 -13.3947 14.5134
head 12.1973 -6.12324 6.29411
rclavicle -2.89356e-014 -1.38652e-014
rhumerus 6.22107 17.4557 -86.6525
rradius 128.66
rwrist 30.5586
rhand 42.3941 6.78568
rfingers 7.12502
rthumb 64.3476 -1.44124
lclavicle -2.89356e-014 -1.38652e-014
lhumerus 9.02823 -7.37454 82.4011
lradius 134.715
lwrist -8.74565
lhand 27.8513 42.1428
lfingers 7.12502
lthumb 51.7652 62.3869
rfemur -6.20455 -5.89779 20.108
rtibia 24.0881
rfoot -19.1633 -12.4178
rtoes -17.9109
lfemur -14.691 -17.4943 -16.1145
ltibia 30.4696
lfoot -17.1932 -1.04585
ltoes -12.9467
1546
root 0.216933 17.1596 -0.181421 2.5718 15.3137 -0.914595
lowerback -1.24237 3.16386 -2.30914
upperback -7.9416 4.30528 1.24674
thorax -7.88955 2.36004 2.34275
lowerneck -7.68283 -8.6219 -15.7622
upperneck 26.7704 -13.3706 14.216
head 12.1267 -6.17064 6.22439
rclavicle 2.91965e-015 2.98177e-016
rhumerus 7.17425 18.1139 -85.7586
rradius 128.074
rwrist 30.2769
rhand 42.4007 6.72216
rfingers 7.12502
rthumb 64.3529 -1.49656
lclavicle 2.91965e-015 2.98177e-016
lhumerus 8.38758 -7.19801 82.9894
lradius 133.953
lwrist -9.13279
lhand 28.3502 42.4935
lfingers 7.12502
lthumb 52.2178 62.4689
rfemur -5.92572 -6.16978 19.8886
rtibia 23.9735
rfoot -18.9921 -13.088
rtoes -18.3344
lfemur -14.6658 -17.8883 -16.3649
ltibia 30.232
lfoot -16.9462 -1.50262
ltoes -13.2252
